<?xml version="1.0" standalone="no"?>
<svg version="1.0" xmlns="http://www.w3.org/2000/svg"
 width="300px" height="300px" viewBox="0 0 1024.000000 1024.000000"
 preserveAspectRatio="xMidYMid meet">
<g transform="translate(0.000000,1024.000000) scale(0.100000,-0.100000)" stroke="none">
<path d="M4794 9580 c-151 -39 -277 -124 -369 -246 -50 -66 -57 -72 -100 -77
-62 -9 -301 -80 -400 -119 -337 -133 -652 -328 -916 -563 -259 -232 -514 -578
-680 -920 -66 -137 -159 -388 -159 -432 0 -17 -10 -25 -52 -37 -66 -19 -181
-86 -232 -134 -51 -49 -117 -151 -149 -233 -69 -174 -57 -400 31 -574 85 -169
182 -258 340 -309 28 -10 52 -23 52 -30 0 -31 114 -364 160 -466 161 -361 437
-730 745 -997 156 -135 436 -322 617 -411 206 -102 556 -222 648 -222 24 0 34
-7 48 -31 37 -68 108 -153 166 -200 67 -53 195 -112 294 -135 70 -16 250 -20
297 -5 76 22 204 77 240 102 78 53 159 152 194 236 11 27 19 30 114 50 521
108 1020 383 1397 769 204 209 361 410 454 581 23 43 59 107 79 143 19 36 56
115 81 175 44 109 126 365 126 396 0 9 19 22 51 33 66 24 188 104 245 161 51
52 123 192 151 295 22 82 22 238 -1 333 -47 199 -208 385 -404 468 l-65 27
-18 68 c-20 78 -119 325 -174 434 -42 83 -161 276 -243 395 -174 251 -457 535
-692 694 -226 153 -418 255 -650 342 -148 57 -367 119 -416 119 -17 0 -34 15
-63 59 -87 128 -246 235 -396 266 -98 21 -263 18 -351 -5z m311 -220 c97 -25
147 -53 209 -119 75 -81 100 -146 104 -266 3 -83 0 -112 -18 -164 -44 -131
-108 -202 -240 -265 -61 -28 -72 -30 -180 -31 -109 0 -119 2 -183 32 -123 59
-216 169 -248 296 -17 68 -7 209 19 277 31 78 108 162 185 199 128 63 224 74
352 41z m-788 -412 c2 -66 13 -141 28 -180 5 -11 -10 -19 -62 -33 -103 -27
-288 -97 -379 -143 -578 -291 -1004 -760 -1210 -1332 -21 -58 -38 -106 -39
-107 -1 -1 -32 9 -71 22 -38 13 -95 27 -127 31 -34 4 -61 12 -64 20 -4 12 103
277 154 379 111 219 305 497 478 683 152 163 426 370 655 494 106 58 273 132
354 157 33 11 97 33 141 50 44 16 94 30 110 31 l31 0 1 -72z m1517 16 c244
-79 427 -169 666 -329 198 -132 289 -206 420 -341 225 -233 426 -527 555 -813
40 -91 95 -240 95 -261 0 -4 -26 -10 -57 -14 -34 -4 -87 -21 -128 -41 -38 -18
-71 -33 -72 -31 -1 1 -18 50 -37 110 -44 134 -165 382 -249 507 -129 196 -312
400 -477 531 -261 209 -521 347 -853 454 -69 22 -86 32 -81 44 18 41 35 140
32 183 l-3 49 39 -6 c21 -4 88 -23 150 -42z m-1344 -450 c34 -62 186 -163 295
-195 38 -12 74 -25 79 -29 22 -21 -33 -106 -166 -259 -56 -63 -56 -66 -33
-256 8 -66 15 -148 15 -182 l0 -62 -42 -12 c-107 -28 -283 -135 -386 -233
-128 -122 -207 -236 -263 -379 l-27 -72 -162 -3 -162 -3 -48 31 c-35 22 -59
30 -94 30 -41 0 -60 -9 -162 -75 -143 -93 -284 -225 -284 -265 0 -50 60 -120
210 -243 80 -65 159 -126 175 -135 17 -8 53 -16 80 -16 42 -1 59 5 106 37 l56
37 140 0 140 0 13 -42 c34 -117 132 -275 245 -397 74 -79 265 -207 369 -246
l76 -30 0 -68 c0 -38 -5 -122 -11 -188 -15 -150 -5 -183 79 -259 126 -116 145
-136 158 -167 23 -54 19 -73 -17 -73 -43 0 -134 -27 -199 -60 -76 -38 -177
-116 -203 -156 -12 -19 -28 -34 -35 -34 -19 0 -206 47 -282 72 -154 49 -403
196 -587 345 -336 273 -643 755 -713 1119 l-12 61 35 46 c91 119 121 236 115
447 -5 164 -15 196 -100 324 l-45 67 19 82 c22 96 130 343 202 464 77 130 207
298 314 406 99 100 305 263 425 337 161 97 374 189 547 236 110 30 124 30 140
-2z m1212 -30 c144 -41 169 -52 363 -154 374 -199 689 -506 872 -850 60 -112
135 -300 164 -408 l21 -77 -44 -65 c-27 -40 -57 -105 -77 -165 -33 -98 -33
-103 -28 -235 4 -109 9 -148 30 -205 32 -91 60 -146 97 -188 l29 -34 -19 -79
c-79 -331 -265 -662 -520 -927 -276 -287 -586 -471 -956 -568 l-115 -30 -52
53 c-82 84 -284 208 -342 208 -41 0 -50 15 -36 59 8 29 40 70 109 143 124 130
128 141 114 266 -6 53 -14 139 -18 189 -6 85 -5 93 12 99 11 4 78 35 149 69
209 100 320 195 445 380 65 97 109 182 116 224 l6 36 151 -3 c111 -3 156 -8
167 -18 24 -21 98 -44 142 -44 51 0 84 18 160 86 35 31 97 83 139 114 41 32
90 74 107 94 67 77 31 159 -120 276 -177 137 -207 155 -263 154 -54 0 -84 -11
-128 -46 -30 -25 -37 -25 -228 -13 l-126 8 -18 56 c-23 75 -93 207 -148 279
-110 142 -324 293 -519 367 l-48 18 0 107 c0 59 7 150 15 204 8 53 11 104 8
113 -4 9 -38 46 -76 82 -80 75 -147 171 -147 210 0 23 6 28 47 39 80 22 205
88 276 147 37 30 67 60 67 67 0 16 83 2 222 -38z m-612 -619 c-7 -16 -15 -85
-17 -152 l-5 -123 -89 3 -88 2 -3 140 c-2 77 -7 147 -11 156 -6 12 5 29 42 64
28 27 51 55 51 61 0 7 30 -17 66 -54 64 -65 66 -68 54 -97z m21 -511 c122 -21
245 -63 328 -113 153 -91 304 -253 350 -377 48 -127 65 -360 37 -494 -22 -102
-73 -223 -129 -307 -90 -133 -252 -257 -412 -316 -139 -50 -147 -52 -280 -52
-315 0 -551 121 -727 369 -110 156 -138 244 -138 436 0 269 71 445 247 611
144 135 318 222 498 248 91 13 123 12 226 -5z m-2668 -359 c81 -21 132 -50
193 -107 109 -103 150 -205 141 -348 -12 -192 -110 -339 -267 -402 -45 -18
-76 -22 -165 -23 -107 0 -112 1 -188 37 -140 67 -226 186 -249 346 -10 67 -9
89 6 153 9 41 30 102 47 135 80 168 291 259 482 209z m5288 -1 c293 -87 413
-388 269 -674 -37 -72 -94 -124 -189 -169 -74 -35 -80 -36 -191 -36 -110 0
-118 1 -188 34 -89 42 -161 116 -206 211 -25 54 -31 80 -34 159 -7 156 19 237
108 334 114 125 290 183 431 141z m-4110 -364 c35 -5 118 -7 184 -3 l120 6 -3
-91 c-3 -83 -5 -90 -25 -96 -12 -3 -88 -6 -168 -6 -139 0 -148 -1 -183 -25
-20 -14 -38 -25 -39 -25 -1 0 -41 38 -89 85 l-86 85 52 42 c28 24 64 56 79 72
l28 29 33 -32 c27 -26 45 -34 97 -41z m2935 6 c35 -30 72 -60 81 -66 15 -10
16 -12 3 -17 -8 -3 -50 -40 -92 -81 l-77 -75 -40 16 c-28 12 -91 19 -206 23
l-165 7 0 89 0 88 148 0 c179 1 230 9 257 43 11 14 21 26 23 26 2 1 32 -24 68
-53z m-3871 -826 c103 -265 170 -389 321 -596 106 -145 232 -291 316 -364 190
-167 384 -302 568 -395 74 -37 310 -123 385 -139 57 -13 53 3 40 -173 l-8
-102 -31 6 c-173 30 -518 178 -741 318 -323 203 -626 501 -837 825 -128 195
-273 519 -293 654 l-7 46 34 0 c44 0 144 26 171 45 12 8 24 11 27 7 4 -4 28
-63 55 -132z m4809 85 c35 -4 69 -11 76 -15 11 -6 2 -40 -39 -157 -206 -587
-583 -1043 -1131 -1371 -195 -117 -462 -233 -645 -281 -120 -32 -115 -35 -115
62 -1 45 -7 100 -15 122 -8 22 -15 41 -15 41 0 1 12 5 28 8 15 4 90 28 167 53
273 89 619 287 815 467 318 292 564 661 680 1018 16 48 31 91 34 96 3 5 26 -1
51 -13 25 -13 74 -26 109 -30z m-2419 -520 c3 -49 11 -111 16 -137 l10 -46
-57 -56 c-32 -31 -61 -56 -64 -56 -3 0 -29 24 -58 53 l-52 53 10 79 c6 44 7
101 4 127 -10 72 -8 73 94 73 l90 1 7 -91z m-16 -836 c185 -30 334 -184 360
-374 29 -210 -64 -392 -244 -477 -60 -28 -83 -33 -166 -36 -251 -11 -431 133
-469 373 -29 180 36 349 167 435 79 52 120 69 191 79 81 12 90 12 161 0z"/>
<path d="M5055 9073 l-104 -106 -36 32 c-74 65 -131 65 -189 1 -57 -63 -51
-81 69 -201 144 -143 160 -140 373 74 84 85 152 159 152 165 0 18 -126 142
-144 142 -9 0 -63 -48 -121 -107z"/>
<path d="M4132 8010 c-84 -30 -174 -83 -296 -175 -173 -129 -242 -212 -355
-427 -65 -125 -73 -165 -47 -217 15 -28 53 -51 85 -51 10 0 36 13 58 29 31 23
51 53 95 142 31 63 67 129 81 147 108 143 244 254 352 288 51 16 53 16 73 -4
17 -17 26 -19 57 -12 48 11 80 42 101 96 30 79 4 156 -63 189 -41 20 -76 19
-141 -5z"/>
<path d="M3445 5961 c-53 -23 -75 -69 -104 -220 -26 -130 -27 -173 -3 -194 40
-36 141 -8 157 43 7 22 25 27 25 8 0 -7 26 -51 57 -98 62 -93 186 -223 273
-286 92 -67 270 -175 313 -190 141 -50 246 56 166 167 -26 37 -59 54 -137 72
-107 25 -265 133 -388 267 -68 73 -187 220 -179 220 3 0 32 -7 64 -16 33 -9
66 -14 75 -11 8 3 27 24 42 47 48 72 16 101 -171 158 -120 37 -163 44 -190 33z"/>
<path d="M5670 8022 c-51 -27 -71 -74 -60 -140 11 -65 52 -158 87 -194 17 -18
37 -28 55 -28 39 0 78 40 78 80 l0 30 37 -15 c47 -20 177 -114 255 -184 58
-53 178 -195 178 -212 0 -4 -16 -3 -35 2 -54 15 -102 -20 -111 -82 -9 -61 19
-89 152 -149 145 -65 201 -74 238 -37 42 42 127 359 106 397 -14 27 -42 40
-84 40 -30 0 -40 -6 -56 -32 -11 -18 -23 -48 -26 -66 -6 -32 -7 -31 -39 42
-76 176 -269 356 -536 501 -130 71 -177 80 -239 47z"/>
<path d="M6396 5869 c-15 -12 -44 -58 -65 -103 -43 -93 -156 -235 -248 -310
-82 -68 -255 -169 -335 -195 -136 -45 -175 -129 -99 -214 26 -28 35 -32 83
-32 49 0 63 7 198 89 304 186 331 210 532 464 101 127 126 235 69 293 -37 36
-94 40 -135 8z"/>
<path d="M5166 6663 c-149 -148 -272 -271 -274 -275 -10 -23 -45 3 -146 105
-132 133 -150 147 -198 147 -44 0 -98 -42 -118 -90 -22 -54 7 -96 192 -273
199 -190 214 -202 266 -192 32 5 81 50 385 358 338 342 347 353 335 376 -20
38 -115 111 -144 111 -21 0 -84 -57 -298 -267z"/>
<path d="M2460 6734 c-28 -24 -71 -66 -95 -91 l-42 -47 -44 37 c-23 21 -60 42
-80 49 -32 9 -42 8 -71 -10 -18 -11 -46 -34 -62 -51 -27 -28 -28 -32 -16 -61
7 -17 54 -69 104 -117 166 -156 182 -159 287 -40 40 45 106 116 146 158 40 42
73 81 73 85 -1 19 -87 100 -136 127 -6 4 -35 -14 -64 -39z"/>
<path d="M7703 6694 l-103 -96 -41 36 c-47 40 -99 61 -132 52 -35 -9 -87 -62
-87 -89 0 -32 38 -83 142 -190 84 -87 86 -88 129 -85 40 3 47 8 104 78 34 41
102 110 151 152 49 42 90 84 92 92 4 19 -115 146 -137 146 -9 -1 -62 -44 -118
-96z"/>
<path d="M5066 4238 c-29 -29 -67 -71 -85 -92 l-34 -40 -26 31 c-32 38 -88 73
-118 73 -13 0 -41 -16 -63 -36 -54 -49 -54 -84 -1 -151 88 -111 174 -173 240
-173 44 0 201 161 263 268 36 64 33 86 -22 136 -59 53 -90 50 -154 -16z"/>
<path d="M5815 3721 c-71 -32 -134 -117 -135 -180 -1 -84 80 -194 153 -208 90
-18 179 14 226 82 76 111 34 247 -94 306 -51 24 -99 24 -150 0z m131 -135 c22
-18 28 -32 27 -61 -1 -45 -25 -72 -70 -81 -28 -6 -37 -2 -68 29 -40 40 -43 59
-15 105 17 27 25 32 59 32 28 0 48 -7 67 -24z"/>
<path d="M2416 2965 c-49 -17 -136 -102 -170 -165 -18 -33 -29 -72 -34 -122
l-7 -73 -35 -5 c-28 -4 -39 -12 -52 -40 -33 -66 -19 -124 32 -135 l30 -7 0
-259 c0 -157 4 -268 10 -279 24 -45 158 -51 196 -9 15 16 19 48 26 202 8 183
24 300 37 278 6 -9 11 -8 21 4 7 8 10 16 6 16 -3 1 -10 3 -16 4 -5 1 -14 3
-20 4 -5 0 -10 12 -10 25 0 23 4 24 83 31 102 9 146 26 149 57 4 56 3 74 -4
90 -11 24 -70 38 -155 38 -80 0 -80 0 -62 63 18 66 37 77 134 77 79 0 86 2
101 25 9 14 19 45 21 68 9 80 -59 127 -183 127 -33 -1 -77 -7 -98 -15z"/>
<path d="M2744 2949 c-8 -14 5 -977 15 -1033 5 -31 13 -42 41 -57 40 -22 113
-25 132 -6 10 11 13 117 12 547 l-1 534 -29 13 c-37 16 -160 17 -170 2z"/>
<path d="M7442 2631 c-125 -43 -225 -146 -257 -266 -27 -97 -17 -216 24 -300
85 -172 292 -266 454 -205 59 22 193 106 218 136 14 17 4 29 -99 111 l-39 32
-24 -26 c-59 -64 -153 -79 -235 -38 -119 59 -133 227 -29 331 54 54 166 51
230 -5 20 -17 40 -31 46 -31 15 0 138 103 138 115 1 15 -66 78 -115 108 -92
57 -215 72 -312 38z"/>
<path d="M3319 2626 c-100 -28 -212 -123 -259 -221 -45 -94 -36 -234 22 -351
47 -94 88 -138 166 -176 60 -30 76 -33 152 -33 79 0 91 3 171 41 112 54 160
98 207 192 35 72 37 81 37 171 0 85 -3 103 -28 153 -29 59 -122 155 -179 184
-100 52 -197 65 -289 40z m193 -215 c71 -45 93 -83 92 -162 -1 -77 -19 -116
-76 -162 -27 -21 -51 -31 -87 -35 -66 -6 -93 2 -137 41 -94 82 -99 221 -12
296 70 60 147 68 220 22z"/>
<path d="M5202 2630 c-57 -12 -143 -62 -181 -105 -52 -59 -54 -159 -5 -243 21
-36 38 -50 91 -74 36 -16 106 -38 156 -50 51 -12 98 -25 105 -31 19 -15 14
-41 -13 -67 -37 -35 -99 -31 -208 14 l-88 36 -55 -47 c-29 -27 -54 -55 -54
-64 0 -41 127 -122 228 -145 232 -52 445 86 418 270 -15 101 -79 153 -263 215
-141 48 -161 62 -133 96 20 25 120 19 192 -10 l62 -25 45 52 c26 29 46 57 46
62 0 16 -120 94 -163 106 -57 16 -132 20 -180 10z"/>
<path d="M3838 2624 c-27 -8 -22 -52 13 -141 17 -43 51 -136 74 -208 110 -331
137 -403 159 -417 13 -9 92 -10 124 -2 31 9 49 47 122 269 l64 190 13 -65 c17
-81 90 -325 108 -361 8 -15 22 -29 30 -33 23 -8 118 -7 131 2 32 20 106 199
204 492 27 80 57 166 66 191 27 69 20 75 -86 83 -56 5 -96 4 -102 -2 -13 -13
-138 -386 -138 -413 0 -40 -10 -13 -45 118 -36 137 -81 270 -98 291 -7 9 -34
12 -89 10 l-80 -3 -62 -175 c-35 -96 -69 -199 -76 -228 -7 -30 -16 -50 -20
-45 -4 4 -12 39 -19 76 -11 64 -102 351 -115 364 -8 8 -156 13 -178 7z"/>
<path d="M6406 2560 c-3 -36 -6 -201 -6 -367 0 -358 -5 -343 105 -343 104 0
105 1 105 228 1 103 5 207 9 232 24 122 195 160 246 54 16 -33 17 -56 13 -179
-7 -179 2 -312 22 -325 8 -6 53 -9 100 -8 l85 3 8 150 c18 342 -1 461 -85 541
-65 61 -95 76 -165 82 -74 6 -131 -12 -199 -64 -42 -33 -44 -33 -44 -11 -1 62
-5 65 -100 69 l-88 3 -6 -65z"/>
<path d="M5580 2593 c0 -15 21 -77 46 -138 25 -60 73 -180 106 -265 120 -305
122 -314 87 -390 -33 -73 -43 -80 -119 -80 -53 0 -73 -4 -93 -20 -32 -25 -49
-81 -41 -132 7 -43 28 -65 81 -84 88 -31 163 -11 245 65 65 60 105 128 168
291 21 52 59 145 85 205 117 273 198 484 203 528 l5 47 -100 0 -99 0 -36 -92
c-20 -51 -62 -164 -94 -250 l-58 -158 -32 108 c-18 59 -57 170 -87 247 l-54
140 -106 3 -107 3 0 -28z"/>
<path d="M4894 1532 c-21 -16 -48 -45 -58 -64 -30 -56 -6 -118 68 -176 73 -56
188 -2 217 103 13 47 -11 98 -64 136 -54 39 -110 39 -163 1z"/>
</g>
</svg>
